<?xml version="1.0" standalone="no"?>
<!DOCTYPE svg PUBLIC "-//W3C//DTD SVG 20010904//EN"
 "http://www.w3.org/TR/2001/REC-SVG-20010904/DTD/svg10.dtd">
<svg version="1.0" xmlns="http://www.w3.org/2000/svg"
 width="7500.000000pt" height="5000.000000pt" viewBox="0 0 7500.000000 5000.000000"
 preserveAspectRatio="xMidYMid meet">

<g transform="translate(0.000000,5000.000000) scale(0.100000,-0.100000)"
fill="#000000" stroke="none">
<path d="M51740 29740 c-318 -20 -501 -48 -662 -101 -234 -76 -383 -201 -437
-367 -26 -77 -28 -207 -5 -296 22 -89 88 -216 139 -269 88 -92 174 -88 531 22
423 130 584 108 723 -99 21 -33 69 -120 105 -193 98 -202 150 -238 221 -151
78 95 164 121 207 63 26 -35 38 -133 27 -216 -22 -158 -22 -176 0 -234 21 -56
76 -146 123 -203 l25 -29 70 74 c149 157 185 204 228 294 78 160 153 415 201
680 34 188 44 449 19 515 -30 82 -31 77 22 92 l48 15 -45 12 c-25 8 -50 15
-56 16 -5 2 -18 30 -27 62 -21 77 -72 152 -122 180 -53 30 -64 29 -33 -4 25
-27 48 -65 48 -78 0 -4 -22 9 -49 29 -112 83 -284 141 -501 171 -137 19 -600
28 -800 15z"/>
<path d="M18104 28909 c-102 -11 -284 -57 -411 -105 -504 -186 -723 -470 -673
-874 6 -52 15 -250 20 -440 12 -443 35 -591 114 -723 31 -51 105 -117 131
-117 9 0 16 19 20 58 17 160 59 277 129 358 32 38 34 43 25 84 -12 63 -11 158
2 205 28 104 113 116 160 22 12 -23 32 -57 46 -75 30 -40 34 -39 152 74 117
111 191 209 255 336 48 97 54 105 101 128 132 65 500 14 884 -122 127 -45 156
-52 221 -52 63 0 88 6 154 34 43 18 112 55 152 82 72 48 154 129 154 153 0 6
-12 20 -28 32 -58 43 -197 181 -250 248 -292 369 -643 607 -1002 679 -100 20
-256 27 -356 15z"/>
<path d="M44687 26095 c-3 -22 -21 -150 -42 -283 -20 -134 -35 -245 -33 -246
4 -3 1599 -247 1611 -246 12 0 1 64 -34 199 -34 133 -36 167 -10 201 30 38 63
19 165 -99 49 -57 111 -120 137 -140 69 -53 92 -92 97 -162 2 -32 7 -59 11
-59 3 0 199 -30 434 -66 236 -36 431 -63 435 -60 6 6 93 558 89 562 -1 1 -644
100 -1428 221 l-1427 219 -5 -41z"/>
<path d="M46400 25059 c-118 -21 -241 -103 -282 -189 l-17 -34 56 -81 c158
-226 485 -656 714 -940 334 -415 617 -733 929 -1045 452 -453 783 -694 1105
-806 71 -25 94 -28 210 -29 l130 0 210 71 c201 68 376 134 497 188 l56 25 6
53 c3 29 10 148 16 263 37 716 117 1483 193 1847 l14 67 -231 -222 c-575 -552
-803 -737 -909 -737 -33 0 -142 64 -407 240 -80 53 -315 206 -522 341 -208
134 -633 412 -945 618 l-568 373 -100 4 c-55 1 -125 -1 -155 -7z"/>
<path d="M52591 23670 c-190 -308 -429 -757 -566 -1065 -386 -861 -525 -1579
-414 -2128 148 -730 708 -1147 1719 -1277 146 -19 646 -49 653 -39 2 2 -2 121
-9 264 -30 620 -37 912 -39 1586 l-3 715 -133 195 c-460 672 -919 1410 -1103
1777 -20 39 -38 72 -40 72 -2 0 -32 -45 -65 -100z"/>
<path d="M25731 21481 c-165 -525 -149 -473 -568 -1831 -166 -542 -307 -995
-313 -1007 l-10 -23 -959 0 -959 0 -59 -57 c-32 -32 -86 -74 -121 -93 -34 -19
-70 -40 -80 -47 -13 -10 223 -12 1118 -13 l1135 0 328 1058 c591 1906 649
2094 640 2103 -4 3 -32 13 -60 22 l-53 15 -39 -127z"/>
<path d="M53785 18906 c-214 -110 -734 -301 -1036 -380 -452 -120 -822 -162
-1314 -153 -308 6 -421 14 -940 67 -164 16 -324 30 -355 30 l-56 0 38 -467
c386 -4784 591 -7461 623 -8158 10 -218 34 -594 61 -930 29 -380 112 -1310
119 -1343 3 -13 26 -37 50 -54 25 -18 45 -38 45 -45 0 -8 -12 -37 -26 -66
-144 -285 -491 -488 -1003 -586 -178 -35 -276 -96 -327 -205 -13 -28 -24 -57
-24 -63 0 -10 -4023 -13 -20083 -13 -19444 0 -20084 -1 -20100 -18 -19 -21
-22 -64 -7 -93 11 -19 339 -19 28050 -19 27711 0 28039 0 28050 19 16 30 12
76 -8 94 -17 16 -358 17 -4697 17 l-4678 0 40 29 c102 74 181 213 214 377 34
166 80 245 254 434 174 189 225 278 225 389 0 133 -87 287 -279 495 -122 132
-120 127 -77 178 44 51 44 55 11 322 -252 2006 -628 3780 -1002 4726 -127 323
-231 517 -387 727 -119 161 -207 308 -316 528 -298 604 -614 1531 -749 2200
-42 209 -59 340 -71 560 -14 240 -52 692 -90 1074 -34 339 -40 382 -49 380 -3
-1 -51 -25 -106 -53z m-765 -6003 c159 -334 553 -1120 695 -1388 419 -789
2000 -3512 2036 -3509 8 1 20 3 27 5 20 6 17 -633 -3 -740 -33 -169 -82 -270
-179 -367 -73 -72 -104 -89 -236 -128 -118 -34 -163 -84 -158 -179 l3 -57
-1687 0 -1688 0 19 48 c37 95 46 185 46 474 l0 278 42 6 c23 3 47 12 53 19 14
17 125 425 220 810 301 1221 503 2412 595 3510 16 195 80 1114 91 1313 4 67
10 122 14 122 3 0 53 -98 110 -217z"/>
<path d="M19816 17730 c-183 -143 -592 -323 -1185 -520 -493 -165 -810 -247
-1262 -325 -394 -67 -670 -95 -964 -95 -350 -1 -548 52 -615 163 -24 39 -25
41 1 -89 30 -156 92 -351 166 -522 6 -14 -242 69 -497 168 -96 37 -387 158
-647 268 -260 111 -512 214 -560 229 -82 25 -101 27 -273 27 -151 1 -198 -2
-255 -18 -188 -50 -335 -131 -470 -258 -195 -184 -299 -400 -325 -671 -7 -72
-10 -381 -8 -862 3 -829 -1 -780 68 -859 18 -20 52 -47 74 -59 l41 -22 2082
-3 2081 -2 174 -207 c95 -114 268 -320 383 -458 381 -456 583 -736 707 -981
86 -169 129 -287 168 -463 56 -256 141 -499 281 -809 44 -97 77 -182 75 -189
-3 -7 -138 -171 -300 -366 -233 -279 -308 -362 -358 -397 -200 -141 -423 -339
-488 -434 -55 -82 -53 -112 20 -246 169 -310 1056 -1880 1070 -1894 15 -15
103 82 136 150 27 55 29 67 29 179 0 109 -3 129 -32 217 -113 340 -130 754
-43 1068 25 89 33 99 58 77 10 -9 23 -17 28 -17 10 0 348 225 528 351 42 29
78 51 80 48 2 -2 71 -108 153 -235 299 -461 687 -1013 1068 -1518 277 -368
260 -346 269 -346 3 0 6 723 6 1608 l0 1607 58 45 c31 25 136 110 232 189
1148 946 1862 1735 2104 2322 65 157 89 268 89 409 0 146 -20 227 -102 410
-151 340 -422 692 -890 1161 -437 436 -850 788 -1466 1249 -600 449 -1354 961
-1412 959 -16 0 -49 -17 -77 -39z m495 -3469 c354 -120 564 -203 724 -284 107
-55 195 -129 195 -165 0 -20 -114 -164 -488 -615 -63 -76 -116 -137 -117 -135
-2 2 -476 1178 -501 1243 -4 8 -2 15 3 15 6 0 88 -27 184 -59z"/>
<path d="M41935 17713 c-600 -24 -1168 -96 -1870 -239 -1109 -226 -1912 -508
-2647 -931 -43 -25 -78 -47 -78 -50 0 -3 42 17 93 45 596 318 1421 583 2482
798 1086 220 1847 308 2650 308 621 -1 1038 -46 1542 -169 630 -153 1061 -380
1180 -622 23 -48 28 -71 28 -134 0 -66 -4 -84 -37 -150 -111 -225 -413 -458
-903 -699 -1259 -619 -3377 -1100 -5280 -1200 -249 -13 -890 -13 -1108 0 -685
42 -1181 161 -1423 344 -67 50 -98 87 -135 156 -31 61 -32 171 0 252 54 139
199 308 381 444 87 65 119 95 63 59 -165 -107 -355 -279 -425 -386 -62 -94
-81 -153 -82 -249 -1 -77 2 -92 32 -152 135 -275 617 -479 1302 -552 1050
-112 2603 -8 3845 259 865 186 1998 575 2810 964 667 321 1025 655 1002 938
-34 432 -970 819 -2267 938 -331 30 -816 42 -1155 28z"/>
<path d="M37298 16474 c-38 -20 -36 -28 2 -9 17 9 30 18 30 20 0 7 -1 6 -32
-11z"/>
</g>
</svg>
